<?xml version="1.0" encoding="utf-8"?>
<!--
  All right reserved - Sicilia.io
-->
<svg version="1.1" id="Layer_1" xmlns="http://www.w3.org/2000/svg" xmlns:xlink="http://www.w3.org/1999/xlink" x="0px" y="0px"
	 viewBox="0 0 137.7 53.5" enable-background="new 0 0 137.7 53.5" xml:space="preserve">
<path display="none" d="M146.3,22.8l-0.2-0.1l-0.2,0c-0.2,0-0.3,0.1-0.5,0.1c-0.3,0-0.6,0-0.8-0.1c0.2,0,0.5,0.1,0.8,0.1
	c0.7,0,1.3-0.3,1.8-1c0.4-0.6,0.6-1.2,0.6-1.9c0-0.7-0.3-1.3-0.8-1.8c-0.5-0.5-1.1-0.7-1.9-0.7c-0.8,0-1.4,0.3-1.9,0.9
	c-0.5,0.6-0.7,1.3-0.7,2.1c0,0.4,0.1,1,0.5,1.5c0,0,0,0,0,0l-0.1-0.2l-0.2,0c-0.5-0.1-0.9-0.1-1.3-0.1c-5.8,0-10.6,4.8-10.6,10.6
	c0,5.8,4.8,10.6,10.6,10.6c5.8,0,10.6-4.8,10.6-10.6C151.9,28.2,149.8,24.7,146.3,22.8z M144.1,19c0.3-0.4,0.7-0.5,1.1-0.5
	c0.5,0,0.9,0.1,1.2,0.4c0.3,0.3,0.4,0.6,0.4,1.1c0,0.5-0.1,0.9-0.4,1.4c-0.2,0.4-0.5,0.5-0.9,0.5c-1.6,0-1.9-0.7-1.9-1.4
	C143.6,19.8,143.7,19.4,144.1,19z M144.5,22.7c-0.3-0.1-0.6-0.2-0.8-0.3C143.9,22.5,144.1,22.7,144.5,22.7z M143.4,22.3
	c-0.1,0-0.1-0.1-0.2-0.2C143.3,22.2,143.4,22.3,143.4,22.3z M141.3,41.8c-5.3,0-9.6-4.3-9.6-9.6c0-5.3,4.3-9.6,9.6-9.6
	c0.3,0,0.6,0,1,0.1c0.7,0.8,1.7,1.2,3.1,1.2c0.2,0,0.4,0,0.6,0c3,1.7,4.9,4.9,4.9,8.4C150.9,37.5,146.6,41.8,141.3,41.8z"/>
<g>
	<circle fill="#ED1C24" cx="115.1" cy="39.4" r="1.4"/>
	<g>
		<g>
			<path fill="#FFF200" d="M132.3,23.3c-0.2,0.1-0.4,0.1-0.6,0.1c-1.6,0-2.4-0.5-2.9-1.2c-0.4-0.1-0.8-0.1-1.3-0.1
				c-5.6,0-10.1,4.5-10.1,10.1s4.5,10.1,10.1,10.1c5.6,0,10.1-4.5,10.1-10.1C137.7,28.3,135.5,25,132.3,23.3z M132.9,35.9
				c-0.7,1.4-1.7,2.6-2.9,3.6c-1.3,1.1-2.5,1.6-3.6,1.6c-1.3,0-3.4-0.6-3.4-4.3c0-2.9,1.1-6.6,3.5-11.1c0.5-1,0.8-1.5,0.9-1.7
				c0.1-0.2,0.3-0.4,0.6-0.5c0.3-0.1,0.6,0,0.8,0.1l1.8,1.1c0.5,0.3,0.6,0.9,0.4,1.3c-0.6,1-1.3,2.7-2.1,5c-1.1,3-1.2,3.9-1.2,4.1
				c0,0.6,0.1,0.7,0.1,0.7c0.1,0.1,0.2,0.1,0.3,0.1c0.1,0,0.7-0.1,2.4-1.9c0.4-0.4,1-0.5,1.4-0.1l0.8,0.7
				C133,35,133.1,35.5,132.9,35.9z"/>
			<path fill="#ED1C24" d="M131.1,34.8l0.8,0.7c-0.7,1.3-1.6,2.4-2.7,3.3c-1.1,0.9-2.1,1.4-3,1.4c-1.6,0-2.4-1.1-2.4-3.3
				c0-2.7,1.1-6.3,3.4-10.7c0.5-1,0.8-1.5,0.9-1.7l1.8,1.1c-0.6,1.1-1.3,2.8-2.2,5.1c-0.9,2.3-1.3,3.8-1.3,4.5
				c0,0.7,0.1,1.1,0.4,1.4c0.3,0.3,0.6,0.4,1,0.4C128.7,37,129.8,36.3,131.1,34.8z"/>
			<path fill="#ED1C24" d="M131.7,22.3c-1.6,0-2.4-0.6-2.4-1.9c0-0.7,0.2-1.3,0.6-1.8c0.4-0.5,0.9-0.7,1.5-0.7s1.1,0.2,1.5,0.5
				c0.4,0.4,0.6,0.8,0.6,1.4s-0.2,1.1-0.5,1.6C132.7,22.1,132.2,22.3,131.7,22.3z"/>
		</g>
	</g>
</g>
<g>
	<g>
		<g>
			<path opacity="0.3" fill="#58595B" d="M81.7,37.8c-0.1-0.3-0.2-0.7-0.2-1.2c0-0.9,0.6-2.8,1.7-5.8c1.1-3,2-5.2,2.8-6.6l-1.2-0.7
				c-0.7,1.4-1.6,3.5-2.6,6.3c-1.1,3-1.7,4.9-1.7,5.8s0.2,1.5,0.5,1.8C81.3,37.5,81.5,37.7,81.7,37.8z"/>
			<path opacity="0.3" fill="#58595B" d="M76.2,21.8c-2.9,6.8-4.3,11.7-4.3,14.7c0,1.4,0.4,2.2,1.2,2.4c-0.1-0.4-0.2-0.9-0.2-1.4
				c0-3,1.4-7.9,4.3-14.7c2.9-6.8,6.1-13.6,9.6-20.5l-1.2-0.6C82.2,8.4,79,15.2,76.2,21.8z"/>
			<path opacity="0.3" fill="#58595B" d="M89.5,15.8c0,0.8-0.2,1.5-0.7,2.1c-0.4,0.7-1,1-1.7,1c-0.7,0-1.4-0.1-1.8-0.3
				c0.4,0.9,1.3,1.3,2.8,1.3c0.7,0,1.3-0.3,1.7-1c0.4-0.7,0.7-1.4,0.7-2.1s-0.3-1.4-0.8-1.8c-0.2-0.1-0.3-0.3-0.5-0.4
				C89.4,15,89.5,15.4,89.5,15.8z"/>
			<path opacity="0.3" fill="#58595B" d="M105.1,36.5c0,0.5,0.2,0.9,0.5,1.3c0.2,0.2,0.4,0.3,0.6,0.4c-0.1-0.2-0.1-0.4-0.1-0.7
				c0-1.2,1.1-4.1,3.4-8.6l-1.2-0.7C106.2,32.5,105.1,35.3,105.1,36.5z"/>
			<path opacity="0.3" fill="#58595B" d="M106.4,23.4l-2.3,0.5c-3.3,0.7-6.2,2.2-8.7,4.3c-2.5,2.2-3.8,4.3-3.8,6.5
				c0,1.6,0.5,2.5,1.4,3c-0.2-0.5-0.4-1.2-0.4-2c0-2.2,1.3-4.3,3.8-6.5c2.5-2.2,5.4-3.6,8.7-4.3l2.3-0.5l-0.1-1.8
				c-0.3,0-0.6,0-0.9,0L106.4,23.4z"/>
			<path opacity="0.3" fill="#58595B" d="M71.4,15.8c0,0.8-0.2,1.5-0.7,2.1c-0.4,0.7-1,1-1.7,1c-0.7,0-1.4-0.1-1.8-0.3
				c0.4,0.9,1.3,1.3,2.8,1.3c0.7,0,1.3-0.3,1.7-1c0.4-0.7,0.7-1.4,0.7-2.1s-0.3-1.4-0.8-1.8c-0.2-0.1-0.3-0.3-0.5-0.4
				C71.3,15,71.4,15.4,71.4,15.8z"/>
			<path opacity="0.3" fill="#58595B" d="M64,29.7c-0.4,1-0.6,1.8-0.9,2.6l-1.4-1.4l0,0l2.4,2.4c0.2-0.7,0.5-1.6,0.9-2.6
				c1.1-3,2-5.2,2.8-6.6l-1.2-0.7C65.9,24.8,65.1,26.9,64,29.7z"/>
			<path opacity="0.3" fill="#58595B" d="M111,37.6c-0.5,1-1.4,2-2.7,2.9c-1.4,1-2.6,1.5-3.7,1.5c-0.7,0-1.3-0.1-1.8-0.4
				c0.5,0.9,1.4,1.4,2.8,1.4c1.1,0,2.4-0.5,3.7-1.5s2.3-2,2.8-3.1L111,37.6z"/>
			<path opacity="0.3" fill="#58595B" d="M102.2,34.9l-2,2.1c-2,2-3.7,3.3-5.1,4c-1.4,0.7-2.8,1-4.2,1c-1,0-1.8-0.2-2.4-0.6
				c0.1,0.2,0.2,0.3,0.3,0.4c0.7,0.8,1.7,1.2,3.1,1.2c1.4,0,2.8-0.3,4.2-1c1.4-0.7,3.1-2,5.1-4l0.3-0.3
				C101.6,36.8,101.8,35.9,102.2,34.9z"/>
			<path opacity="0.3" fill="#58595B" d="M77.2,38.9c-0.9,1.3-1.7,2.3-2.4,3c-0.4,0.4-0.8,0.7-1.3,0.9c-0.5,0.3-1.1,0.4-1.7,0.4
				c-0.7,0-1.3-0.2-1.8-0.5c0.1,0.1,0.1,0.2,0.2,0.2c0.7,0.9,1.6,1.3,2.7,1.3c0.6,0,1.1-0.1,1.7-0.4c0.4-0.2,0.9-0.5,1.3-0.9
				c0.6-0.5,1.2-1.3,1.9-2.3C77.5,40.1,77.3,39.6,77.2,38.9z"/>
			<path opacity="0.3" fill="#58595B" d="M86.7,37.6c0-0.1,0-0.2,0-0.4c-0.7,1.1-1.6,2.1-2.7,2.9c-1.4,1.2-2.7,1.8-3.9,1.8
				c-0.6,0-1-0.1-1.4-0.3c0.5,0.9,1.3,1.3,2.4,1.3c1.2,0,2.5-0.6,3.9-1.8c0.7-0.6,1.3-1.2,1.9-1.9C86.8,38.8,86.7,38.2,86.7,37.6z"
				/>
		</g>
		<g>
			<path fill="#ED1C24" d="M63.3,23.9c-1.1,2.1-2,4.1-2.7,5.9l2.4,2.4c0.2-0.7,0.5-1.6,0.9-2.6c1.1-3,2-5.2,2.8-6.6l-2.3-1.4
				C64.4,22,64,22.7,63.3,23.9z"/>
			<path fill="#ED1C24" d="M69,18.9c0.7,0,1.3-0.3,1.7-1c0.4-0.7,0.7-1.4,0.7-2.1s-0.3-1.4-0.8-1.8c-0.5-0.5-1.2-0.7-2-0.7
				c-0.8,0-1.5,0.3-2,0.9c-0.5,0.6-0.8,1.4-0.8,2.3C66,18.1,67,18.9,69,18.9z"/>
			<path fill="#ED1C24" d="M84.1,16.5c0,1.6,1,2.4,3,2.4c0.7,0,1.3-0.3,1.7-1c0.4-0.7,0.7-1.4,0.7-2.1s-0.3-1.4-0.8-1.8
				c-0.5-0.5-1.2-0.7-2-0.7s-1.4,0.3-2,0.9C84.4,14.8,84.1,15.6,84.1,16.5z"/>
			<path fill="#ED1C24" d="M109.9,36.5c-0.2,0.1-0.4,0.3-0.7,0.5c-0.3,0.2-0.5,0.4-0.6,0.5s-0.3,0.2-0.4,0.3s-0.3,0.2-0.4,0.2
				c-0.1,0.1-0.2,0.1-0.3,0.1c-0.1,0-0.3,0.1-0.7,0.1c-0.3,0-0.7-0.2-1-0.5c-0.3-0.3-0.5-0.8-0.5-1.3c0-1.2,1.1-4.1,3.4-8.6
				l-2.3-1.4c-1.6,3.1-3.6,5.8-6,8c-2.4,2.3-4.4,3.4-6,3.4c-1.7,0-2.6-1.1-2.6-3.2s1.3-4.3,3.8-6.5c2.5-2.2,5.4-3.6,8.7-4.3l2.3-0.5
				l-0.1-1.8c-3,0-6.1,0.8-9.1,2.4c-3,1.6-5.5,3.6-7.5,6.1c-1.4,1.8-2.3,3.6-2.7,5.4L86.4,35c-1.7,2-3.1,2.9-4.1,2.9
				c-0.5,0-0.9-0.2-1.3-0.5c-0.4-0.4-0.5-1-0.5-1.8s0.6-2.8,1.7-5.8c1.1-3,2-5.2,2.8-6.6l-2.3-1.4c-0.1,0.2-0.5,0.9-1.1,2.2
				c-2.7,5.3-4.1,9.6-4.3,13.1l-0.3-0.2c-1,1.5-2,2.3-3,2.3c-1.3,0-1.9-0.9-1.9-2.6c0-3,1.4-7.9,4.3-14.7c2.9-6.8,6.1-13.6,9.6-20.5
				L83.5,0c-3.5,6.4-6.9,13.8-10.3,22.2c-2.3,5.8-3.8,10.1-4.5,13.1l0.7,0.6c-0.3,0.6-0.7,1.1-1,1.6c0,0.1-0.1,0.1-0.1,0.2
				c0,0.3-0.1,0.6-0.1,0.9c0,1.3,0.3,2.4,1,3.3c0.7,0.9,1.6,1.3,2.7,1.3c0.6,0,1.1-0.1,1.7-0.4c0.4-0.2,0.9-0.5,1.3-0.9
				c0.7-0.7,1.5-1.7,2.4-3c0.3,2,1.2,3,3,3c1.2,0,2.5-0.6,3.9-1.8c1-0.8,1.9-1.8,2.7-2.9c0,0.1,0,0.2,0,0.4c0,1.4,0.4,2.5,1.1,3.2
				c0.7,0.8,1.7,1.2,3.1,1.2c1.4,0,2.8-0.3,4.2-1c1.4-0.7,3.1-2,5.1-4l2-2.1c-0.5,1.5-0.8,2.7-0.8,3.8c0,2.2,1.1,3.4,3.2,3.4
				c1.1,0,2.4-0.5,3.7-1.5s2.3-2,2.8-3.1L109.9,36.5z"/>
		</g>
		<g>
			<path opacity="0.3" fill="#58595B" d="M25,11.4c-1.7,0-3.7,1.1-5.8,3.2c-2.2,2.1-3.3,4.1-3.3,6c0,1.3,0.3,2.3,1,3
				c0.2,0.2,0.4,0.4,0.7,0.6c-0.5-0.7-0.7-1.5-0.7-2.6c0-1.8,1.1-3.8,3.3-6c2.2-2.1,4.1-3.2,5.8-3.2c0.3,0,0.5,0,0.7,0.1
				C26.5,11.8,26,11.4,25,11.4z"/>
			<path opacity="0.3" fill="#58595B" d="M22.4,31.5c-0.8-0.4-2.3-1-4.7-1.9c-1.8-0.7-3.3-1.4-4.3-2.2c0.1,0.1,0.2,0.2,0.3,0.3
				c1,1,2.6,2,5,2.8c2.4,0.9,3.9,1.5,4.7,1.9c0.2,0.1,0.5,0.3,0.7,0.4c0,0,0,0,0,0C23.7,32.4,23.2,31.9,22.4,31.5z"/>
			<path opacity="0.3" fill="#58595B" d="M6.7,48.4c-0.1-0.3-0.2-0.6-0.2-1c0-2.4,2-4.8,6.1-7.1c3.8-2.2,8-3.5,12.7-4.1
				c0-0.3-0.1-0.6-0.2-1.1c-5,0.5-9.5,1.9-13.5,4.2c-4,2.3-6.1,4.7-6.1,7.1C5.4,47.3,5.9,47.9,6.7,48.4z"/>
			<path opacity="0.3" fill="#58595B" d="M37.3,37.8c-0.1-0.3-0.2-0.7-0.2-1.2c0-0.9,0.6-2.8,1.7-5.8c1.1-3,2-5.2,2.8-6.6l-1.2-0.7
				c-0.7,1.4-1.6,3.5-2.6,6.3c-1.1,3-1.7,4.9-1.7,5.8s0.2,1.5,0.5,1.8C36.8,37.5,37.1,37.7,37.3,37.8z"/>
			<path opacity="0.3" fill="#58595B" d="M63.1,32.3c-0.5,1.6-0.8,2.7-0.8,3.2c0,0.9,0.2,1.5,0.5,1.8c0.2,0.2,0.4,0.3,0.7,0.4
				c-0.1-0.3-0.2-0.7-0.2-1.2c0-0.6,0.3-1.7,0.8-3.2L63.1,32.3z"/>
			<path opacity="0.3" fill="#58595B" d="M60.8,23.6c-1.9,0.1-3.7,0.4-5.4,1c-1.7,0.6-3.2,1.5-4.6,2.6c-2.6,2.2-3.9,4.6-3.9,7.2
				c0,1.1,0.3,1.9,1,2.6c0.2,0.2,0.4,0.3,0.6,0.4c-0.4-0.6-0.5-1.2-0.5-2c0-2.5,1.3-4.9,3.9-7.2c1.3-1.1,2.9-2,4.6-2.6
				c1.6-0.6,3.4-0.9,5.4-1l0.2-2.1c-0.4,0-0.8-0.1-1.1-0.1L60.8,23.6z"/>
			<path opacity="0.3" fill="#58595B" d="M59.1,36.3l-1-0.8c-0.9,1.9-2.2,3.5-4.1,4.7c-1.9,1.2-3.8,1.8-5.6,1.8
				c-1.6,0-2.9-0.5-4.1-1.4c0.2,0.2,0.4,0.5,0.6,0.7c1.2,1.1,2.7,1.7,4.5,1.7c1.8,0,3.7-0.6,5.6-1.8c1.8-1.2,3.2-2.7,4.1-4.6
				C59.1,36.5,59.1,36.4,59.1,36.3z"/>
			<path opacity="0.3" fill="#58595B" d="M45.1,15.8c0,0.8-0.2,1.5-0.7,2.1c-0.4,0.7-1,1-1.7,1c-0.7,0-1.4-0.1-1.8-0.3
				c0.4,0.9,1.3,1.3,2.8,1.3c0.7,0,1.3-0.3,1.7-1c0.4-0.7,0.7-1.4,0.7-2.1s-0.3-1.4-0.8-1.8c-0.2-0.1-0.3-0.3-0.5-0.4
				C45,15,45.1,15.4,45.1,15.8z"/>
			<path opacity="0.3" fill="#58595B" d="M33.1,34.3c-0.3,0-0.7-0.1-1.1-0.1c-0.6,0-1.2,0-2,0.1c0,2.8-1.3,5.6-4,8.5
				c-2.7,2.9-5.9,5.2-9.7,7c-3.8,1.8-7.3,2.7-10.6,2.7c-1.6,0-2.9-0.4-4-1.2c0.2,0.3,0.5,0.6,0.8,0.9c1.1,0.9,2.5,1.3,4.2,1.3
				c3.3,0,6.8-0.9,10.6-2.7c3.8-1.8,7-4.1,9.7-7c2.7-2.9,4-5.7,4-8.5c0.7-0.1,1.3-0.1,1.9-0.1C33,34.9,33.1,34.6,33.1,34.3z"/>
			<path opacity="0.3" fill="#58595B" d="M42.3,37.2c-0.7,1.1-1.6,2.1-2.7,3c-1.4,1.2-2.7,1.8-3.9,1.8c-0.6,0-1-0.1-1.4-0.3
				c0.5,0.9,1.3,1.3,2.4,1.3c1.2,0,2.5-0.6,3.9-1.8c0.8-0.7,1.6-1.5,2.2-2.4C42.6,38.3,42.5,37.8,42.3,37.2z"/>
			<path opacity="0.3" fill="#58595B" d="M32.1,10.8c0,1.6-1,3.6-2.9,6c-1.9,2.3-3.9,4.1-6.2,5.4l0.8,1.1c2.4-1.3,4.5-3.1,6.4-5.5
				c1.9-2.4,2.9-4.4,2.9-6c0-1-0.3-1.8-0.9-2.5C32,9.1,31.7,9,31.5,8.8C31.9,9.4,32.1,10.1,32.1,10.8z"/>
			<path opacity="0.3" fill="#58595B" d="M28.7,30.3c0.4,0.6,0.8,1.2,1,1.8l0.6,0C29.9,31.4,29.4,30.8,28.7,30.3z"/>
			<path opacity="0.3" fill="#58595B" d="M68.2,38.5c0-0.3,0-0.5,0.1-0.9c-0.7,0.9-1.4,1.7-2.3,2.5c-1.4,1.2-2.7,1.8-3.9,1.8
				c-0.6,0-1-0.1-1.4-0.3c0.5,0.9,1.3,1.3,2.4,1.3c1.2,0,2.5-0.6,3.9-1.8c0.9-0.7,1.6-1.6,2.3-2.5c-0.3,0.4-0.6,0.8-0.9,1.1
				C68.2,39.4,68.2,39,68.2,38.5z"/>
			<path fill="#D43E27" d="M69.7,36.3L69.3,36c-0.3,0.5-0.6,1.1-1,1.5c0,0.1-0.1,0.1-0.1,0.2c0,0.3-0.1,0.6-0.1,0.9
				c0,0.4,0.1,0.9,0.1,1.3c0.3-0.4,0.6-0.7,0.9-1.1c0-0.1,0-0.2,0-0.3l0.1,0.1c0.4-0.5,0.7-1.1,1-1.6L69.7,36.3z"/>
		</g>
		<path fill="#FFF200" d="M39.7,16.5c0-0.9,0.3-1.7,0.8-2.3c0.5-0.6,1.2-0.9,2-0.9c0.8,0,1.4,0.2,2,0.7c0.5,0.5,0.8,1.1,0.8,1.8
			s-0.2,1.5-0.7,2.1c-0.4,0.7-1,1-1.7,1C40.7,18.9,39.7,18.1,39.7,16.5z M56.9,34.3l1.3,1.1c-0.9,2-2.3,3.6-4.2,4.8
			c-1.9,1.2-3.8,1.8-5.6,1.8c-1.8,0-3.3-0.6-4.5-1.7c-0.8-0.8-1.4-1.8-1.6-3.1c-0.7,1.1-1.6,2.1-2.7,3c-1.4,1.2-2.7,1.8-3.9,1.8
			c-2,0-3-1.4-3-4.2c0-1,0.1-2.2,0.4-3.4c-0.3,0-0.7-0.1-1.1-0.1c-0.6,0-1.2,0-2,0.1c0,2.8-1.3,5.6-4,8.5c-2.7,2.9-5.9,5.2-9.7,7
			c-3.8,1.8-7.3,2.7-10.6,2.7c-1.7,0-3.1-0.4-4.2-1.3c-1.1-0.9-1.6-2-1.6-3.4c0-2.1,1.4-4.3,4.2-6.6C7,38.9,10.2,37,14,35.5
			c3.7-1.5,7.1-2.4,10.1-2.6c-0.4-0.5-0.9-1-1.7-1.4c-0.8-0.4-2.3-1-4.7-1.9c-2.4-0.9-4-1.8-5-2.8c-1-1-1.5-2.5-1.5-4.4
			c0-1.9,1-4,3-6.5c2-2.4,4.4-4.5,7.2-6.1c2.8-1.6,5.2-2.5,7.3-2.5c0.9,0,1.7,0.3,2.3,1c0.6,0.7,0.9,1.5,0.9,2.5c0,1.6-1,3.6-2.9,6
			c-1.9,2.4-4.1,4.3-6.4,5.5l-1.3-1.8c1.4-0.7,2.7-1.9,3.7-3.4c1.1-1.5,1.6-2.9,1.6-4c0-1.1-0.6-1.7-1.8-1.7c-1.7,0-3.7,1.1-5.8,3.2
			c-2.2,2.1-3.3,4.1-3.3,6c0,1.3,0.3,2.3,1,3c0.7,0.7,2.3,1.6,4.9,2.7c2.6,1.1,4.5,2,5.7,2.8c1.1,0.8,1.9,1.8,2.2,3.1l3.9-0.1v0.5
			c0.7-2.5,1.9-5.4,3.5-8.6c0.7-1.2,1-2,1.1-2.2l2.3,1.4c-0.8,1.4-1.7,3.6-2.8,6.6c-1.1,3-1.7,4.9-1.7,5.8s0.2,1.5,0.5,1.8
			c0.4,0.4,0.8,0.5,1.3,0.5c1,0,2.3-1,4.1-2.9l0.2,0.2c0.1-1.8,1-3.8,2.5-5.9c1.7-2.3,3.9-4.2,6.6-5.7c0.7-0.4,1.4-0.7,2.1-1
			c2-0.8,4-1.2,5.9-1.2c0.4,0,0.9,0,1.6,0.1l-0.2,2.1c-1.9,0.1-3.7,0.4-5.4,1c-1.7,0.6-3.2,1.5-4.6,2.6c-2.6,2.2-3.9,4.6-3.9,7.2
			c0,1.1,0.3,1.9,1,2.6c0.7,0.7,1.5,1,2.6,1C52.1,38,54.3,36.7,56.9,34.3z M25.2,36.2c0-0.3-0.1-0.6-0.2-1.1
			c-5,0.5-9.5,1.9-13.5,4.2c-4,2.3-6.1,4.7-6.1,7.1c0,1.7,1.4,2.6,4.2,2.6c1.6,0,3.6-0.6,6.1-1.7c2.5-1.1,4.7-2.7,6.6-4.8
			C24.2,40.4,25.2,38.3,25.2,36.2z M68.7,35.3L68.3,35c-0.4,0.5-0.8,0.9-1.2,1.3c-1.2,1.1-2.1,1.7-2.9,1.7c-0.5,0-0.9-0.2-1.3-0.5
			s-0.5-1-0.5-1.8c0-0.6,0.3-1.7,0.8-3.2l-2.4-2.4c-1.1,3-1.7,5.6-1.7,7.8c0,2.8,1,4.2,3,4.2c1.2,0,2.5-0.6,3.9-1.8
			c0.9-0.7,1.6-1.6,2.3-2.5c0-0.1,0-0.2,0-0.3l0.1,0.1c0.4-0.5,0.7-1.1,1-1.6L68.7,35.3z"/>
	</g>
</g>
<path fill="#ED1C24" d="M69.7,36.3L69.3,36c-0.3,0.5-0.6,1.1-1,1.5c0,0.1-0.1,0.1-0.1,0.2c0,0.3-0.1,0.6-0.1,0.9
	c0,0.4,0.1,0.9,0.1,1.3c0.3-0.4,0.6-0.7,0.9-1.1c0-0.1,0-0.2,0-0.3l0.1,0.1c0.4-0.5,0.7-1.1,1-1.6L69.7,36.3z"/>
</svg>
